<?xml version="1.0" encoding="UTF-8"?>
<svg width="76px" height="76px" viewBox="0 0 76 76" version="1.1" xmlns="http://www.w3.org/2000/svg" xmlns:xlink="http://www.w3.org/1999/xlink">
    <!-- Generator: Sketch 50.2 (55047) - http://www.bohemiancoding.com/sketch -->
    <title>Links</title>
    <desc>Created with Sketch.</desc>
    <defs></defs>
    <g id="Page-1" stroke="none" stroke-width="1" fill="none" fill-rule="evenodd">
        <path d="M45.041,56.077 L31.288,69.831 C24.369,76.75 13.131,76.782 6.171,69.928 L6.17,69.929 C6.154,69.913 6.138,69.896 6.122,69.879 C6.106,69.863 6.089,69.847 6.072,69.831 C6.072,69.831 6.072,69.831 6.072,69.831 L6.073,69.83 C-0.781,62.87 -0.75,51.632 6.17,44.713 L21.326,29.557 C28.245,22.638 39.483,22.606 46.443,29.46 L46.444,29.459 C46.46,29.475 46.476,29.492 46.492,29.508 C46.508,29.524 46.525,29.54 46.542,29.557 L46.541,29.558 C47.373,30.403 48.104,31.31 48.733,32.265 L44.615,36.383 C43.441,37.557 41.653,37.746 40.277,36.958 C40.096,36.73 39.902,36.51 39.693,36.298 C36.483,33.146 31.308,33.162 28.12,36.35 L12.963,51.506 C9.773,54.696 9.758,59.874 12.915,63.084 C16.125,66.241 21.304,66.226 24.493,63.036 L33.108,54.421 C36.885,56.059 41.022,56.61 45.041,56.077 Z M69.831,6.071 L69.83,6.072 C62.87,-0.782 51.632,-0.751 44.713,6.169 L30.959,19.923 C34.979,19.39 39.116,19.941 42.892,21.578 L51.507,12.963 C54.697,9.773 59.875,9.758 63.085,12.915 C66.242,16.125 66.227,21.304 63.037,24.493 L47.881,39.65 C44.693,42.838 39.518,42.854 36.308,39.702 C36.1,39.49 35.905,39.27 35.724,39.042 C34.348,38.254 32.56,38.443 31.386,39.617 L27.268,43.735 C27.897,44.69 28.628,45.598 29.46,46.442 L29.459,46.443 C29.475,46.459 29.492,46.475 29.509,46.492 C29.525,46.508 29.541,46.525 29.557,46.541 L29.558,46.54 C36.518,53.394 47.756,53.363 54.675,46.443 L69.831,31.287 C76.75,24.368 76.782,13.13 69.928,6.17 L69.929,6.169 C69.913,6.153 69.896,6.137 69.879,6.121 C69.863,6.104 69.847,6.088 69.831,6.071 Z" id="Links" fill="#0D78F2" fill-rule="nonzero"></path>
    </g>
</svg>